G04*
G04 #@! TF.GenerationSoftware,Altium Limited,Altium Designer,18.0.9 (584)*
G04*
G04 Layer_Physical_Order=1*
G04 Layer_Color=255*
%FSLAX25Y25*%
%MOIN*%
G70*
G01*
G75*
%ADD10R,0.05512X0.04724*%
%ADD11R,0.04724X0.05512*%
%ADD12R,0.05512X0.04331*%
%ADD13R,0.04331X0.05512*%
%ADD14C,0.01968*%
%ADD15C,0.01000*%
%ADD16C,0.07874*%
%ADD17C,0.08268*%
%ADD18R,0.08268X0.08268*%
%ADD19R,0.07874X0.07874*%
%ADD20R,0.05906X0.05906*%
%ADD21C,0.05906*%
%ADD22C,0.15748*%
%ADD23C,0.07087*%
%ADD24C,0.07480*%
%ADD25C,0.11811*%
D10*
X278000Y380000D02*
D03*
Y388000D02*
D03*
X126000Y414000D02*
D03*
Y422000D02*
D03*
X310000Y430000D02*
D03*
Y438000D02*
D03*
D11*
X198000Y388000D02*
D03*
X206000D02*
D03*
X188000Y446000D02*
D03*
X180000D02*
D03*
X264000Y455000D02*
D03*
X256000D02*
D03*
X127000Y390000D02*
D03*
X119000D02*
D03*
X186000Y355000D02*
D03*
X178000D02*
D03*
D12*
X314000Y395000D02*
D03*
Y403000D02*
D03*
D13*
X315000Y415000D02*
D03*
X307000D02*
D03*
D14*
X332000Y411000D02*
Y446000D01*
X307795Y470205D02*
X332000Y446000D01*
X219433Y377000D02*
X227716Y385283D01*
X287170Y345170D02*
X314000Y372000D01*
X332000Y390000D02*
Y411000D01*
X314000Y372000D02*
X332000Y390000D01*
X247000Y484019D02*
Y487000D01*
X241000Y493000D02*
X247000Y487000D01*
X215000Y493000D02*
X241000D01*
X281937Y459000D02*
X284142Y461205D01*
X272000Y459000D02*
X281937D01*
X260805Y470195D02*
X271654Y459346D01*
Y447000D02*
Y459346D01*
X260814Y470205D02*
X307795D01*
X240000Y455000D02*
X247000Y462000D01*
Y484019D01*
X198528Y476528D02*
X215000Y493000D01*
X245000Y365000D02*
X248000Y368000D01*
X245000Y330000D02*
Y365000D01*
X256000Y447000D02*
Y452000D01*
X271000Y354000D02*
X287170D01*
X247000Y330000D02*
X271000Y354000D01*
X245000Y330000D02*
X247000D01*
X110000Y390000D02*
X119000D01*
X107000Y393000D02*
X110000Y390000D01*
X107000Y393000D02*
Y444000D01*
X119000Y390000D02*
Y396764D01*
X115000Y400764D02*
X119000Y396764D01*
X270000Y415000D02*
X307000D01*
X257716Y427283D02*
X270000Y415000D01*
X282000Y419000D02*
X299000D01*
X277716Y423283D02*
X282000Y419000D01*
X277716Y423283D02*
Y428890D01*
X299000Y419000D02*
X310000Y430000D01*
X206000Y388000D02*
X209000Y385000D01*
X218000D01*
X189000Y377000D02*
Y386000D01*
X191000Y388000D01*
X198000D01*
X199000Y365912D02*
X203791Y361122D01*
X199000Y365912D02*
Y377000D01*
X219433D01*
X145000Y366000D02*
X157000Y354000D01*
X138900Y372100D02*
X145000Y366000D01*
X178000D01*
Y355000D02*
Y366000D01*
X189000Y377000D01*
X177717Y378284D02*
X179000Y377000D01*
X177717Y378284D02*
Y397638D01*
X167717Y378284D02*
X169000Y377000D01*
X167717Y378284D02*
Y397638D01*
X281457Y346457D02*
X287170D01*
X265000Y330000D02*
X281457Y346457D01*
X314000Y372000D02*
Y395000D01*
X287170Y345170D02*
Y346457D01*
X256758Y319758D02*
X265000Y328000D01*
X224307Y319758D02*
X256758D01*
X265000Y328000D02*
Y330000D01*
X224307Y351000D02*
X226000D01*
X223307Y350000D02*
X224307Y351000D01*
X196749Y354251D02*
Y355000D01*
X237717Y362717D02*
Y397638D01*
X226000Y351000D02*
X237717Y362717D01*
X216118Y350000D02*
X223307D01*
X213118Y353000D02*
X216118Y350000D01*
X193000Y319758D02*
X224307D01*
X187000Y330000D02*
X245000D01*
X285170Y362000D02*
X287170Y364000D01*
X281000Y362000D02*
X285170D01*
X278000Y365000D02*
X281000Y362000D01*
X278000Y365000D02*
Y380000D01*
X171000Y470000D02*
X188000D01*
X165000Y464000D02*
X171000Y470000D01*
X127000Y464000D02*
X165000D01*
X107000Y444000D02*
X127000Y464000D01*
X192000Y455000D02*
X220000D01*
X190000Y457000D02*
Y468000D01*
Y457000D02*
X192000Y455000D01*
X188000Y470000D02*
X190000Y468000D01*
X128380Y390000D02*
X136811Y398431D01*
X127000Y390000D02*
X128380D01*
X119000Y389100D02*
Y390000D01*
Y389100D02*
X136000Y372100D01*
X136811Y398431D02*
Y402811D01*
X141000Y407000D01*
X152000D01*
X167717Y422717D01*
Y428890D01*
X154528Y398431D02*
X161096Y405000D01*
X130044Y482390D02*
X135907Y476528D01*
X163000D01*
X115000Y437346D02*
X130044Y452390D01*
X247000Y484019D02*
X260814Y470205D01*
X161096Y405000D02*
X235079D01*
X227000Y447000D02*
X227716Y446283D01*
X220000Y454000D02*
X227000Y447000D01*
X255906D01*
X254000Y405000D02*
X301000D01*
X235079D02*
X254000D01*
X237717Y421283D02*
X254000Y405000D01*
X237717Y421283D02*
Y428890D01*
X126000Y426000D02*
X139000Y439000D01*
X172000D01*
X177717Y433284D01*
Y428890D02*
Y433284D01*
X126000Y422000D02*
Y426000D01*
Y421000D02*
Y422000D01*
X115000Y413000D02*
X127000D01*
X115000Y421236D02*
Y437346D01*
X227716Y397638D02*
X235079Y405000D01*
X301000D02*
X311000Y395000D01*
X314000D01*
X321898Y403000D02*
X322835Y403937D01*
X314000Y403000D02*
X321898D01*
X311063Y403937D02*
X313063D01*
X306000Y409000D02*
X311063Y403937D01*
X267606Y409000D02*
X306000D01*
X247716Y428890D02*
X267606Y409000D01*
X328000Y415000D02*
X332000Y411000D01*
X317000Y415000D02*
X328000D01*
X312835Y422835D02*
X322835D01*
X307000Y417000D02*
X312835Y422835D01*
X307000Y415000D02*
Y417000D01*
X300000Y459346D02*
X302654D01*
X314775Y447225D01*
X317345D01*
X309000Y438880D02*
X317345Y447225D01*
X257716Y427283D02*
Y428890D01*
X197716D02*
Y442283D01*
X194000Y446000D02*
X197716Y442283D01*
X188000Y446000D02*
X194000D01*
X180000D02*
Y461063D01*
X164000Y446000D02*
X180000D01*
X163000Y447000D02*
X164000Y446000D01*
X178000Y339000D02*
Y355000D01*
X186000D02*
X186669Y354331D01*
X195917D01*
X196749Y354251D02*
X200000Y351000D01*
X196669Y354331D02*
X196749Y354251D01*
Y344749D02*
Y354251D01*
X208334Y351000D02*
X211665Y354331D01*
X200000Y351000D02*
X208334D01*
X195917Y354331D02*
X196669D01*
X193000Y341000D02*
X196749Y344749D01*
X263572Y442450D02*
Y455000D01*
X263582Y438414D02*
X264000Y437996D01*
X263582Y438414D02*
Y442406D01*
X263572Y442450D02*
X263582Y442406D01*
X278611Y437996D02*
X287717Y428890D01*
X264000Y437996D02*
X278611D01*
X157000Y325348D02*
Y354000D01*
X153622Y321970D02*
X157000Y325348D01*
X322000Y422000D02*
X322835Y422835D01*
X193000Y339758D02*
Y341000D01*
X300000Y459346D02*
X301858Y461205D01*
X163000Y476528D02*
X198528D01*
X198858Y462205D02*
Y476528D01*
X178000Y339000D02*
X187000Y330000D01*
X136000Y372100D02*
X138900D01*
X178758Y319758D02*
X193000D01*
X168000Y309000D02*
X178758Y319758D01*
X142970Y309000D02*
X168000D01*
X130000Y321970D02*
X142970Y309000D01*
X116000Y341000D02*
Y372100D01*
Y341000D02*
X130000Y327000D01*
Y321970D02*
Y327000D01*
X284142Y461205D02*
X287817Y457529D01*
Y447225D02*
Y457529D01*
X217717Y397638D02*
X218000Y397354D01*
Y385000D02*
Y397354D01*
X217472Y457528D02*
X220000Y455000D01*
X217472Y457528D02*
Y484019D01*
X227716Y428890D02*
Y446283D01*
X220000Y454000D02*
Y455000D01*
X167717Y428890D02*
X168000Y428606D01*
X180000Y461063D02*
X181142Y462205D01*
X227716Y385283D02*
Y397638D01*
X247716Y389283D02*
X249000Y388000D01*
X247716Y389283D02*
Y397638D01*
X277716Y388283D02*
X278000Y388000D01*
X277716Y388283D02*
Y397638D01*
D15*
X334646Y448819D02*
Y500000D01*
Y303150D02*
Y381890D01*
X102362Y303150D02*
Y500000D01*
Y303150D02*
X334646D01*
Y370079D02*
Y448819D01*
X102362Y500000D02*
X334646Y500000D01*
D16*
X136000Y372100D02*
D03*
X116000D02*
D03*
X199000Y377000D02*
D03*
X189000D02*
D03*
X179000D02*
D03*
X193000Y319758D02*
D03*
Y339758D02*
D03*
X195917Y354331D02*
D03*
X203791Y361122D02*
D03*
X211665Y354331D02*
D03*
X240000Y455000D02*
D03*
X220000D02*
D03*
X265000Y330000D02*
D03*
X245000D02*
D03*
X247000Y484019D02*
D03*
X217472D02*
D03*
X224307Y349286D02*
D03*
Y319758D02*
D03*
X163000Y447000D02*
D03*
Y476528D02*
D03*
X317345Y447225D02*
D03*
X287817D02*
D03*
X248000Y385827D02*
D03*
Y368000D02*
D03*
X115000Y400764D02*
D03*
Y411000D02*
D03*
Y421236D02*
D03*
X130044Y452390D02*
D03*
Y482390D02*
D03*
X325000Y404551D02*
D03*
Y423449D02*
D03*
D17*
X167717Y397638D02*
D03*
X177717D02*
D03*
X187716D02*
D03*
X197716D02*
D03*
X207716D02*
D03*
X217717D02*
D03*
X227716D02*
D03*
X237717D02*
D03*
X247716D02*
D03*
X257716D02*
D03*
X267717D02*
D03*
X277716D02*
D03*
X287717D02*
D03*
X297716D02*
D03*
Y428890D02*
D03*
X287717D02*
D03*
X277716D02*
D03*
X267717D02*
D03*
X257716D02*
D03*
X247716D02*
D03*
X237717D02*
D03*
X227716D02*
D03*
X217717D02*
D03*
X207716D02*
D03*
X197716D02*
D03*
X187716D02*
D03*
X177717D02*
D03*
D18*
X167717D02*
D03*
D19*
X169000Y377000D02*
D03*
D20*
X287170Y346457D02*
D03*
D21*
Y354331D02*
D03*
Y362205D02*
D03*
X271654Y447000D02*
D03*
X263779D02*
D03*
X255906D02*
D03*
D22*
X153622Y321970D02*
D03*
X130000D02*
D03*
X141811Y341655D02*
D03*
D23*
X228000Y385000D02*
D03*
X218000D02*
D03*
D24*
X284142Y486795D02*
D03*
X301858Y461205D02*
D03*
X284142D02*
D03*
X301858Y486795D02*
D03*
X198858Y462205D02*
D03*
X181142Y487795D02*
D03*
X198858D02*
D03*
X181142Y462205D02*
D03*
X154528Y398431D02*
D03*
X136811Y424022D02*
D03*
X154528D02*
D03*
X136811Y398431D02*
D03*
D25*
X323000Y315000D02*
D03*
Y490000D02*
D03*
X114000D02*
D03*
M02*
